<?xml version="1.0" encoding="utf-8"?>
<!-- Generator: Adobe Illustrator 27.4.0, SVG Export Plug-In . SVG Version: 6.00 Build 0)  -->
<svg version="1.1" id="레이어_1" xmlns="http://www.w3.org/2000/svg" xmlns:xlink="http://www.w3.org/1999/xlink" x="0px"
	 y="0px" viewBox="0 0 17 16" style="enable-background:new 0 0 17 16;" xml:space="preserve">
<style type="text/css">
	.st0{enable-background:new    ;}
</style>
<g class="st0">
	<path d="M11.2,4.1l3.6,3.6c0.1,0.1,0.1,0.4,0,0.5l-3.6,3.6c-0.1,0.1-0.4,0.1-0.5,0l-0.2-0.2c-0.1-0.1-0.1-0.4,0-0.5l2.6-2.6H1.4
		C1.2,8.5,1,8.4,1,8.2V7.8c0-0.2,0.2-0.4,0.4-0.4h11.7l-2.6-2.6c-0.1-0.1-0.1-0.4,0-0.5l0.2-0.2C10.9,4,11.1,4,11.2,4.1z"/>
</g>
</svg>
